# xmcd
#
# Track frame offsets: 
#        150
#        11981
#        34112
#        54965
#        66287
#        80020
#        97490
#        106751
#        115957
#        135689
#        155539
#        183598
#
# Disc length: 2672 seconds
#
# Revision: 0
# Processed by: cddbd v1.5.2PL0 Copyright (c) Steve Scherf et al.
# Submitted via: ExactAudioCopy v1.3
#
DISCID=a80a6e0c
DTITLE=Travis Tritt - Homesick (Live In New York)
DYEAR=1993
DGENRE=Country
TTITLE0=Here's A Quarter (Call Someone Who Cares)
TTITLE1=Anymore
TTITLE2=Lord Have Mercy On The Working Man
TTITLE3=The Whiskey Ain't Working
TTITLE4=Country Club
TTITLE5=Outlaws Like Us
TTITLE6=Nothing Short Of Dyin'
TTITLE7=Help Me Hold On
TTITLE8=Homesick
TTITLE9=Young Country
TTITLE10=Blues Man
TTITLE11=Burning Love
EXTD=
EXTT0=
EXTT1=
EXTT2=
EXTT3=
EXTT4=
EXTT5=
EXTT6=
EXTT7=
EXTT8=
EXTT9=
EXTT10=
EXTT11=
PLAYORDER=
